General
Complete name                    : From Paris With Love.mp4
Format                           : MPEG-4
Codec ID                         : mp42
File size                        : 1.05 GiB
Duration                         : 1h 32mn
Overall bit rate                 : 1 617 Kbps
Writing application              : HandBrake 0.9.3 2008112300

Video

Format                           : AVC
Duration                         : 1h 32mn
Bit rate                         : 1 500 Kbps
Width                            : 720 pixels
Height                           : 368 pixels
Display aspect ratio             : 2.35:1
Stream size                      : 995 MiB (93%)
Writing library                  : x264 core 65


Audio

Format                           : AAC
Duration                         : 1h 32mn
Bit rate                         : 112 Kbps
Channel(s)                       : 2 channels
Channel positions                : Front: L R
Sampling rate                    : 48.0 KHz
Stream size                      : 74.2 MiB (7%)
Language                         : English




